<svg xmlns="http://www.w3.org/2000/svg" version="1.1" xmlns:xlink="http://www.w3.org/1999/xlink" xmlns:svgjs="http://svgjs.dev/svgjs" width="1000" height="338" viewBox="0 0 1000 338"><g transform="matrix(1,0,0,1,-0.6060606060606233,-0.0072920233634192755)"><svg viewBox="0 0 396 134" data-background-color="#ffffff" preserveAspectRatio="xMidYMid meet" height="338" width="1000" xmlns="http://www.w3.org/2000/svg" xmlns:xlink="http://www.w3.org/1999/xlink"><g id="tight-bounds" transform="matrix(1,0,0,1,0.2400000000000091,0.0028909205050240416)"><svg viewBox="0 0 395.52 133.99421815898992" height="133.99421815898992" width="395.52"><g><svg viewBox="0 0 633.1205925386138 214.48851839999998" height="133.99421815898992" width="395.52"><g transform="matrix(1,0,0,1,237.60059253861382,58.29376415049504)"><svg viewBox="0 0 395.52 97.90099009900989" height="97.90099009900989" width="395.52"><g><svg viewBox="0 0 395.52 97.90099009900989" height="97.90099009900989" width="395.52"><g><svg viewBox="0 0 395.52 97.90099009900989" height="97.90099009900989" width="395.52"><g transform="matrix(1,0,0,1,0,0)"><svg width="395.52" viewBox="0.08000000566244125 -32.15999984741211 153.5 38" height="97.90099009900989" data-palette-color="#6f605b"><path d="M15.4-27.38Q17.8-28.4 20.24-29.02 22.68-29.64 23.68-29.64L23.68-29.64Q25-29.64 25.04-29.16L25.04-29.16 25.08-29Q24.24-29 23.64-28.34 23.04-27.68 22.48-25.72L22.48-25.72Q21.84-23.28 21.36-20.54 20.88-17.8 20.82-17.52 20.76-17.24 20.7-16.82 20.64-16.4 20.56-16.04L20.56-16.04Q27.6-16.64 29.92-16.76L29.92-16.76Q31.2-23.4 33.12-27.78 35.04-32.16 36.76-32.16L36.76-32.16Q37.4-32.16 37.4-31.52L37.4-31.52Q34.76-25.72 33.34-19.82 31.92-13.92 31.14-8.34 30.36-2.76 30.36 1.12L30.36 1.12Q30.36 1.68 29.8 1.68L29.8 1.68Q28.4 1.68 28.4-1.52L28.4-1.52Q28.4-8.28 29.68-15.76L29.68-15.76Q25.8-15.32 23.62-15.02 21.44-14.72 20.32-14.6L20.32-14.6Q18.6-5.16 16.48-1.52L16.48-1.52Q15.48 0.2 14.2 1.68L14.2 1.68Q11.6 4.64 7.36 4.64L7.36 4.64Q4.24 4.64 2.34 2.88 0.44 1.12 0.16-1.4L0.16-1.4Q0.08-2.24 0.08-3.5 0.08-4.76 0.54-6.86 1-8.96 2.74-10.72 4.48-12.48 6.72-12.48L6.72-12.48Q7.32-12.48 7.68-12.12 8.04-11.76 8.16-11.04L8.16-11.04Q4.52-11.04 2.48-7.48L2.48-7.48Q1.12-5.16 1.12-2.84L1.12-2.84Q1.12-1.6 1.52-0.32L1.52-0.32Q2.64 3.24 6.76 3.24L6.76 3.24Q10.76 3.24 13.12-0.96L13.12-0.96Q14.6-3.64 15.4-6.32L15.4-6.32Q16.52-10.16 17.36-14.24L17.36-14.24Q16.08-14.08 15.08-14.08 14.08-14.08 13.92-15.08L13.92-15.08Q13.76-15.84 14.24-16L14.24-16Q14.28-16.04 14.36-16.04L14.36-16.04Q14.52-15.76 15.3-15.76 16.08-15.76 17.72-15.88L17.72-15.88Q18.48-19.52 18.92-21.38 19.36-23.24 20.24-25.46 21.12-27.68 22.12-28.64L22.12-28.64Q18.44-27.96 15.24-26.08L15.24-26.08Q13.6-25.12 12.56-23.72 11.52-22.32 11.52-20.8L11.52-20.8Q11.52-19.76 12.32-19.76L12.32-19.76Q12.16-19.2 11.44-19.2 10.72-19.2 10.18-19.76 9.64-20.32 9.64-21.32L9.64-21.32Q9.64-23.08 11.32-24.72 13-26.36 15.4-27.38ZM39.44 0L39.44 0Q36.16 0 36.16-5.16L36.16-5.16Q36.16-8.24 37.68-11.92L37.68-11.92Q39.8-17.08 43.24-18.96L43.24-18.96Q44.72-19.76 46-19.76 47.28-19.76 48.02-19.2 48.76-18.64 48.96-18.08L48.96-18.08 49.2-17.56Q49.08-16.88 48.52-16.88L48.52-16.88Q47.88-16.88 47.78-17.18 47.68-17.48 47.56-17.7 47.44-17.92 47-18.3 46.56-18.68 46-18.68L46-18.68Q43.4-18.68 41.28-14L41.28-14Q38.88-8.6 38.88-3.84L38.88-3.84Q38.88-1.44 39.84-1.44L39.84-1.44Q40.6-1.44 41.98-3.14 43.36-4.84 44.88-7.4L44.88-7.4Q47.52-11.8 49.16-15.04L49.16-15.04Q50.52-17.92 51.96-17.92L51.96-17.92Q52.72-17.92 52.72-17L52.72-17Q52.36-16.24 51.8-14.84 51.24-13.44 50.32-9.28 49.4-5.12 49.4-1 49.4 3.12 50.64 3.12L50.64 3.12Q51.12 3.12 51.52 2.7 51.92 2.28 52.24 1.44L52.24 1.44Q52.36 1 52.8 1L52.8 1Q52.96 1 53.04 1.12 53.12 1.24 53.04 1.52 52.96 1.8 52.76 2.3 52.56 2.8 51.9 3.64 51.24 4.48 50.52 4.48L50.52 4.48Q48.84 4.48 47.94 2.28 47.04 0.08 47.04-2.92 47.04-5.92 47.48-8.68L47.48-8.68 47.08-8.68Q42 0 39.44 0ZM58.04-1.36L58.04-1.36Q58.04 1.44 59.84 1.44L59.84 1.44Q61.52 1.44 62.98-1.32 64.44-4.08 64.44-8.28L64.44-8.28Q64.44-10.32 63.7-14.04 62.96-17.76 62.96-18.9 62.96-20.04 63.04-20.4L63.04-20.4Q62.52-19.56 60.04-14.82 57.56-10.08 55.64-7.32L55.64-7.32Q55.48-7.16 55.2-7.22 54.92-7.28 54.74-7.46 54.56-7.64 54.56-7.72 54.56-7.8 54.6-7.84L54.6-7.84Q56.48-10.56 58.98-15.34 61.48-20.12 63.16-22.48 64.84-24.84 66.48-24.84L66.48-24.84Q67.32-24.84 67.32-24.12L67.32-24.12Q67.32-23.64 66.64-22.84L66.64-22.84Q64.48-20.4 64.48-17.84L64.48-17.84Q64.48-16.32 65.64-11.98 66.8-7.64 66.8-5.68L66.8-5.68Q66.8-2.16 64.84 0.3 62.88 2.76 60.4 2.76L60.4 2.76Q56.88 2.76 56.88-1.28L56.88-1.28Q56.88-4.32 58.74-7.64 60.6-10.96 62.48-12.12L62.48-12.12Q62.84-12.36 62.94-11.84 63.04-11.32 62.8-11.16L62.8-11.16Q60.68-9.96 59.12-6.04L59.12-6.04Q58.04-3.28 58.04-1.36ZM77.67-11.6Q75.55-7.76 74.37-4.8 73.19-1.84 73.19-1.3 73.19-0.76 72.63-0.76L72.63-0.76Q71.43-0.76 71.43-3.96L71.43-3.96Q71.43-10.32 72.71-16.74 73.99-23.16 75.75-27.02 77.51-30.88 79.03-30.88L79.03-30.88Q79.67-30.88 79.67-30.24L79.67-30.24Q77.55-25.56 76.13-19.56 74.71-13.56 73.75-6.76L73.75-6.76 74.03-6.76Q79.11-19.24 83.99-19.24L83.99-19.24Q86.03-19.24 86.03-17.28L86.03-17.28Q85.75-16.36 85.31-14.86 84.87-13.36 84.15-9.48 83.43-5.6 83.43-2.68L83.43-2.68Q83.43 1.56 84.67 1.56L84.67 1.56Q85.11 1.56 85.55 1.18 85.99 0.8 86.15 0.8L86.15 0.8Q86.71 0.8 86.11 1.68L86.11 1.68Q85.95 1.96 85.41 2.44 84.87 2.92 84.35 2.92L84.35 2.92Q82.79 2.92 81.93 0.74 81.07-1.44 81.07-4.92L81.07-4.92Q81.07-10.8 82.83-17.04L82.83-17.04Q82.91-17.64 82.35-17.56L82.35-17.56Q82.07-17.52 81.79-17.24L81.79-17.24Q79.79-15.44 77.67-11.6ZM99.19-3.32Q99.35-3.68 99.87-3.68 100.39-3.68 100.39-3.44L100.39-3.44 100.39-3.32Q100.23-2.88 99.51-1.9 98.79-0.92 98.13-0.32 97.47 0.28 96.43 0.78 95.39 1.28 94.31 1.28L94.31 1.28Q90.11 1.28 88.95-2.76L88.95-2.76Q87.91-6.52 89.79-11.32 91.67-16.12 95.03-18.2L95.03-18.2Q96.79-19.28 98.39-19.28 99.99-19.28 100.71-18.36L100.71-18.36Q101.79-21.84 103.47-21.84L103.47-21.84Q104.11-21.84 104.11-21.16L104.11-21.16Q103.79-20.68 103.29-19.9 102.79-19.12 101.95-17.12 101.11-15.12 101.11-13.6L101.11-13.6Q101.11-13.08 100.67-13.08L100.67-13.08Q100.15-13.08 100.07-14L100.07-14Q100.07-15.56 100.35-16.92L100.35-16.92Q100.11-18.16 98.59-18.16L98.59-18.16Q95.71-18.16 93.53-13.8 91.35-9.44 91.35-5.28L91.35-5.28Q91.35-0.08 94.63-0.08L94.63-0.08Q95.91-0.08 97.05-0.88 98.19-1.68 98.67-2.48L98.67-2.48 99.19-3.32ZM108.99 0.36L108.99 0.36Q104.07 0.36 104.07-6.4L104.07-6.4Q104.07-10.2 105.99-14L105.99-14Q108.43-18.8 111.79-18.8L111.79-18.8Q112.27-18.8 112.59-18.56 112.91-18.32 113.03-17.84L113.03-17.84Q110.51-17.84 108.67-13.8 106.83-9.76 106.83-5.84L106.83-5.84Q106.83-1.08 109.43-1.08L109.43-1.08Q110.91-1.08 112.51-3.34 114.11-5.6 115.17-9.28 116.23-12.96 116.23-16.68L116.23-16.68 116.23-17.16Q114.99-17.96 114.19-19.16 113.39-20.36 113.39-20.92 113.39-21.48 113.89-21.98 114.39-22.48 114.91-22.48L114.91-22.48Q115.67-22.48 116.39-21.12 117.11-19.76 117.39-18.04L117.39-18.04Q118.63-17.2 119.57-17.2 120.51-17.2 121.07-17.52L121.07-17.52Q121.07-16.96 120.67-16.52 120.27-16.08 119.43-16.08 118.59-16.08 117.51-16.48L117.51-16.48Q117.47-12.64 116.35-8.76 115.23-4.88 113.23-2.26 111.23 0.36 108.99 0.36ZM123.98 0L123.98 0Q120.63 0 120.63-5.16L120.63-5.16Q120.63-8.16 122.14-11.76L122.14-11.76Q124.22-16.8 127.63-18.6L127.63-18.6Q129.1-19.4 130.31-19.4 131.5-19.4 132.15-18.98 132.78-18.56 132.99-18.12L132.99-18.12 133.19-17.68Q133.06-17 132.47-17 131.87-17 131.6-17.66 131.34-18.32 130.38-18.32L130.38-18.32Q127.78-18.32 125.75-13.72L125.75-13.72Q123.39-8.52 123.39-3.88L123.39-3.88Q123.39-1.44 124.39-1.44L124.39-1.44Q125.19-1.44 126.72-3.42 128.26-5.4 129.91-8.24L129.91-8.24Q132.15-12.16 133.87-15.4L133.87-15.4Q135.31-21.64 137.37-26.3 139.43-30.96 140.78-30.96L140.78-30.96Q141.47-30.96 141.47-30.28L141.47-30.28Q140.5-28.2 139.21-24.6 137.91-21 137-17.74 136.1-14.48 135.37-9.96 134.63-5.44 134.63-1.44L134.63-1.44Q134.63 4.52 137.22 4.52L137.22 4.52Q138.22 4.52 139.09 3.66 139.94 2.8 140.31 1.96L140.31 1.96Q140.5 1.52 141.03 1.72L141.03 1.72Q141.22 1.8 141.19 1.96L141.19 1.96Q140.94 2.48 140.59 3.16 140.22 3.84 139.16 4.84 138.1 5.84 137.03 5.84L137.03 5.84Q132.26 5.84 132.26-3.12L132.26-3.12Q132.26-6.28 132.82-9.88L132.82-9.88 132.31-9.88Q126.67 0 123.98 0ZM150.54-19.4L150.54-19.4Q153.58-19.4 153.58-15.84L153.58-15.84Q153.58-13.8 152.22-11.56L152.22-11.56Q149.9-7.84 146.06-7.84L146.06-7.84Q145.46-7.84 145.06-8.04 144.66-8.24 144.46-8.64L144.46-8.64Q147.3-8.64 149.66-11.92L149.66-11.92Q151.58-14.56 151.58-16.76L151.58-16.76Q151.58-18.4 150.26-18.4L150.26-18.4Q147.62-18.4 145.34-14.28L145.34-14.28Q142.9-9.8 142.9-5.08L142.9-5.08Q142.9-1.08 145.18-0.28L145.18-0.28Q145.62-0.12 146.3-0.12 146.98-0.12 147.74-0.46 148.5-0.8 149.02-1.28L149.02-1.28Q150.06-2.24 150.74-3.4L150.74-3.4Q150.9-3.72 151.34-3.72L151.34-3.72Q152.06-3.72 152.02-3.48L152.02-3.48Q151.9-3.04 151.12-2 150.34-0.96 149.68-0.34 149.02 0.28 147.96 0.78 146.9 1.28 145.82 1.28L145.82 1.28Q141.58 1.28 140.42-2.72L140.42-2.72Q140.06-4.08 140.06-5.52L140.06-5.52Q140.06-8.2 141.3-11.36L141.3-11.36Q143.26-16.16 146.7-18.28L146.7-18.28Q148.58-19.4 150.54-19.4Z" opacity="1" transform="matrix(1,0,0,1,0,0)" fill="#6f605b" class="undefined-text-0" data-fill-palette-color="primary" id="text-0"></path></svg></g></svg></g></svg></g></svg></g><g><svg viewBox="0 0 214.48851839999998 214.48851839999998" height="214.48851839999998" width="214.48851839999998"><g><svg></svg></g><g id="icon-0"><svg viewBox="0 0 214.48851839999998 214.48851839999998" height="214.48851839999998" width="214.48851839999998"><g><rect width="195.02567136" height="195.02567136" x="9.731423519999993" y="9.731423519999993" fill="#f36527" data-fill-palette-color="accent"></rect><rect width="195.02567136" height="195.02567136" x="19.462847039999993" y="-5.329070518200751e-15" fill="#f36527" opacity="0.5" data-fill-palette-color="accent"></rect></g><g transform="matrix(1,0,0,1,28.83888069937261,27.80406719999999)"><svg viewBox="0 0 156.81075700125476 158.880384" height="158.880384" width="156.81075700125476"><g><svg xmlns="http://www.w3.org/2000/svg" xmlns:xlink="http://www.w3.org/1999/xlink" version="1.1" x="0" y="0" viewBox="9.312000274658203 8.775997161865234 81.37599182128906 82.45001220703125" enable-background="new 0 0 100 100" xml:space="preserve" height="158.880384" width="156.81075700125476" class="icon-s-0" data-fill-palette-color="background" id="s-0"><g fill="#ffffff" data-fill-palette-color="background"><path d="M84.086 38.313c3.637 0 6.597-2.958 6.602-6.597 0-3.642-2.963-6.607-6.602-6.607h-7.91l1.725-8.291c0.357-1.727 0.022-3.488-0.944-4.964-0.968-1.475-2.45-2.483-4.177-2.843-0.444-0.091-0.897-0.139-1.349-0.139-3.106 0-5.822 2.209-6.461 5.257l-2.284 10.98-14.674 0.005 1.742-8.387c0.362-1.727 0.026-3.488-0.94-4.966-0.967-1.473-2.452-2.485-4.177-2.843-0.443-0.094-0.9-0.142-1.351-0.142-3.109 0-5.825 2.212-6.458 5.258l-2.303 11.079H20.823c-3.637 0-6.598 2.96-6.598 6.602 0 3.637 2.963 6.597 6.603 6.597h10.949L27.37 59.507H15.91c-3.637 0-6.598 2.96-6.598 6.602 0 3.637 2.962 6.598 6.602 6.598h8.711l-2.183 10.479c-0.739 3.56 1.557 7.063 5.122 7.807 0.443 0.091 0.897 0.139 1.348 0.139 3.109 0 5.827-2.211 6.46-5.256l2.737-13.168h14.678l-2.2 10.574c-0.357 1.725-0.024 3.488 0.942 4.961 0.968 1.476 2.452 2.485 4.18 2.844 0.444 0.093 0.896 0.139 1.346 0.139 3.111 0 5.829-2.21 6.463-5.256l2.756-13.262h12.897c3.638 0 6.598-2.959 6.602-6.598 0-3.642-2.962-6.607-6.602-6.607H69.022l4.406-21.188H84.086zM59.939 38.313l-4.404 21.188-14.678 0.006 4.407-21.194H59.939z" fill="#ffffff" data-fill-palette-color="background"></path></g></svg></g></svg></g></svg></g></svg></g></svg></g><defs></defs></svg><rect width="395.52" height="133.99421815898992" fill="none" stroke="none" visibility="hidden"></rect></g></svg></g></svg>